/* XPM */
static char * custombuttonsEditor_xpm[] = {
"48 48 340 2",
"  	c None",
". 	c #87CDDD",
"+ 	c #87CEDF",
"@ 	c #87CEDE",
"# 	c #88CEDE",
"$ 	c #87CDDE",
"% 	c #88CEDF",
"& 	c #87CDDF",
"* 	c #89CEDF",
"= 	c #87CFDF",
"- 	c #9DD6E4",
"; 	c #B3E0EA",
"> 	c #B8E1EB",
", 	c #B7E1EB",
"' 	c #AFDEE9",
") 	c #96D3E2",
"! 	c #9AD5E4",
"~ 	c #D2ECF3",
"{ 	c #F4FAFC",
"] 	c #F6FBFC",
"^ 	c #F0F8FA",
"/ 	c #C3E6EF",
"( 	c #90D1E1",
"_ 	c #B6E1EB",
": 	c #F3FAFB",
"< 	c #FEFEFE",
"[ 	c #FFFFFF",
"} 	c #FDFEFE",
"| 	c #E6F4F8",
"1 	c #A4D9E6",
"2 	c #8FD1E1",
"3 	c #CCEAF1",
"4 	c #FCFEFE",
"5 	c #FCFDFE",
"6 	c #FBFDFE",
"7 	c #FAFDFD",
"8 	c #F9FCFD",
"9 	c #F8FCFD",
"0 	c #F7FCFC",
"a 	c #F7FBFC",
"b 	c #F5FBFC",
"c 	c #F2F9FB",
"d 	c #F1F9FB",
"e 	c #F0F9FB",
"f 	c #EFF8FA",
"g 	c #E7F5F8",
"h 	c #B2DFEA",
"i 	c #93D2E2",
"j 	c #D2ECF2",
"k 	c #EEF8FA",
"l 	c #EDF7FA",
"m 	c #ECF7F9",
"n 	c #EBF7F9",
"o 	c #EBF6F9",
"p 	c #EAF6F9",
"q 	c #E9F6F9",
"r 	c #E9F5F9",
"s 	c #E8F5F8",
"t 	c #E5F4F8",
"u 	c #E4F4F7",
"v 	c #E3F3F7",
"w 	c #E2F3F7",
"x 	c #E1F2F7",
"y 	c #E0F2F6",
"z 	c #DFF2F6",
"A 	c #DFF1F6",
"B 	c #DBF0F5",
"C 	c #8BCFDF",
"D 	c #8ACEDF",
"E 	c #CBE9F1",
"F 	c #E4F4F8",
"G 	c #E1F2F6",
"H 	c #DEF1F6",
"I 	c #DDF1F6",
"J 	c #DCF0F5",
"K 	c #DAF0F5",
"L 	c #DAEFF5",
"M 	c #D9EFF5",
"N 	c #D9EFF4",
"O 	c #D8EFF4",
"P 	c #D7EEF4",
"Q 	c #D6EEF4",
"R 	c #D5EEF3",
"S 	c #D5EDF3",
"T 	c #D4EDF3",
"U 	c #D3ECF3",
"V 	c #D1ECF2",
"W 	c #D0EBF2",
"X 	c #CFEBF2",
"Y 	c #CDEAF1",
"Z 	c #8DD0E0",
"` 	c #8ED0E0",
" .	c #98D4E3",
"..	c #C2E6EE",
"+.	c #D3EDF3",
"@.	c #D0ECF2",
"#.	c #CEEAF2",
"$.	c #CEEBF2",
"%.	c #CAE9F1",
"&.	c #CAE9F0",
"*.	c #C9E9F0",
"=.	c #C9E8F0",
"-.	c #C8E8F0",
";.	c #C7E8F0",
">.	c #C6E7F0",
",.	c #C6E7EF",
"'.	c #C5E7EF",
").	c #C4E7EF",
"!.	c #C4E6EF",
"~.	c #C2E5EE",
"{.	c #C0E4EE",
"].	c #AADCE8",
"^.	c #91D1E1",
"/.	c #92D2E1",
"(.	c #9BD5E4",
"_.	c #BAE2EC",
":.	c #ADD9E7",
"<.	c #90C9DE",
"[.	c #7FC0D8",
"}.	c #75BAD4",
"|.	c #72B9D4",
"1.	c #71B8D3",
"2.	c #74BAD4",
"3.	c #7BBED7",
"4.	c #86C4DA",
"5.	c #9DD1E2",
"6.	c #BFE4EE",
"7.	c #B4DFEA",
"8.	c #85C4DA",
"9.	c #83C4DA",
"0.	c #83C3D9",
"a.	c #82C3D9",
"b.	c #81C2D9",
"c.	c #85C5DA",
"d.	c #96CEE0",
"e.	c #B5DFEA",
"f.	c #B9E2EC",
"g.	c #B8E2EC",
"h.	c #B8E1EC",
"i.	c #B5E0EB",
"j.	c #B4E0EB",
"k.	c #A6DAE7",
"l.	c #95D3E2",
"m.	c #9CD6E4",
"n.	c #BDE3ED",
"o.	c #BCE3ED",
"p.	c #BBE3EC",
"q.	c #AEDCE8",
"r.	c #6DB7D2",
"s.	c #53A9CA",
"t.	c #52A9CA",
"u.	c #51A8C9",
"v.	c #4FA7C9",
"w.	c #4EA7C9",
"x.	c #4DA6C8",
"y.	c #4CA5C8",
"z.	c #4AA5C7",
"A.	c #49A4C7",
"B.	c #6CB6D2",
"C.	c #B3DFEA",
"D.	c #9FD4E4",
"E.	c #43A1C5",
"F.	c #42A0C5",
"G.	c #41A0C4",
"H.	c #3F9FC4",
"I.	c #3E9FC4",
"J.	c #3D9EC3",
"K.	c #3C9DC3",
"L.	c #3A9DC3",
"M.	c #49A5C7",
"N.	c #9FD5E4",
"O.	c #ADDDE9",
"P.	c #ACDDE9",
"Q.	c #ACDDE8",
"R.	c #ACDCE8",
"S.	c #ABDCE8",
"T.	c #A9DBE8",
"U.	c #A1D8E5",
"V.	c #99D5E3",
"W.	c #9AD5E3",
"X.	c #9FD7E5",
"Y.	c #B1DEEA",
"Z.	c #B0DEEA",
"`.	c #A6D9E6",
" +	c #45A4C6",
".+	c #3198C0",
"++	c #3098BF",
"@+	c #3299C0",
"#+	c #82C0D8",
"$+	c #C2E0EC",
"%+	c #CDE7F0",
"&+	c #C5E4EE",
"*+	c #B3DBE8",
"=+	c #97CBDF",
"-+	c #61B0CE",
";+	c #57ABCB",
">+	c #91CEE0",
",+	c #2090BA",
"'+	c #1F8FBA",
")+	c #2391BB",
"!+	c #85C2D9",
"~+	c #81C0D8",
"{+	c #5AADCC",
"]+	c #1A8DB8",
"^+	c #188BB8",
"/+	c #178BB7",
"(+	c #50A8C9",
"_+	c #A3D9E6",
":+	c #A2D8E6",
"<+	c #A0D8E5",
"[+	c #9ED7E5",
"}+	c #A9DBE7",
"|+	c #A8DBE7",
"1+	c #A7DAE7",
"2+	c #49A7C8",
"3+	c #1088B5",
"4+	c #0F87B5",
"5+	c #1489B6",
"6+	c #B8DBE9",
"7+	c #B1DFEA",
"8+	c #C3E5EE",
"9+	c #87C9DD",
"0+	c #0582B2",
"a+	c #D2EBF2",
"b+	c #AEDDE9",
"c+	c #B4E0EA",
"d+	c #54ACCB",
"e+	c #0381B1",
"f+	c #0984B3",
"g+	c #90CEE0",
"h+	c #0783B3",
"i+	c #0381B2",
"j+	c #89CADD",
"k+	c #CFEAF1",
"l+	c #6DBBD4",
"m+	c #1188B5",
"n+	c #5FB3CF",
"o+	c #D4EAF2",
"p+	c #AEDEE9",
"q+	c #8DCCDE",
"r+	c #D1EBF2",
"s+	c #46A5C7",
"t+	c #69B4D1",
"u+	c #B0DEE9",
"v+	c #3DA0C4",
"w+	c #2793BD",
"x+	c #DDF1F5",
"y+	c #91CEDF",
"z+	c #0E87B5",
"A+	c #C0E2EC",
"B+	c #94CFE0",
"C+	c #55AECC",
"D+	c #0583B2",
"E+	c #E4F2F7",
"F+	c #2B97BE",
"G+	c #47A3C6",
"H+	c #95CFE0",
"I+	c #0482B2",
"J+	c #0683B2",
"K+	c #2D96BE",
"L+	c #9DCEE1",
"M+	c #BFE4ED",
"N+	c #2995BD",
"O+	c #4CA6C8",
"P+	c #CEEAF1",
"Q+	c #99D1E2",
"R+	c #0B85B4",
"S+	c #0883B3",
"T+	c #3EA0C4",
"U+	c #86C7DB",
"V+	c #BEE4ED",
"W+	c #369CC2",
"X+	c #369BC1",
"Y+	c #9DD2E3",
"Z+	c #DBEEF4",
"`+	c #C8E5EF",
" @	c #84C3DA",
".@	c #1389B6",
"+@	c #60B2CF",
"@@	c #56ADCC",
"#@	c #CFE9F1",
"$@	c #A1D4E4",
"%@	c #DBEFF5",
"&@	c #C3E6EE",
"*@	c #9BD1E2",
"=@	c #A0D2E3",
"-@	c #8FCADE",
";@	c #87C4DA",
">@	c #A5D6E5",
",@	c #DDF0F5",
"'@	c #2694BC",
")@	c #68B4D1",
"!@	c #C8E7EF",
"~@	c #2392BB",
"{@	c #168BB7",
"]@	c #B3DCE9",
"^@	c #A9D7E6",
"/@	c #C8E7F0",
"(@	c #178BB8",
"_@	c #5EAECD",
":@	c #D8EEF4",
"<@	c #99CFE0",
"[@	c #C7E6EF",
"}@	c #C0E3ED",
"|@	c #87C6DB",
"1@	c #48A5C7",
"2@	c #ACD9E7",
"3@	c #0D86B4",
"4@	c #C1E1EC",
"5@	c #AFDAE8",
"6@	c #9ACFE1",
"7@	c #44A3C6",
"8@	c #94C9DE",
"9@	c #80C1D8",
"0@	c #2894BD",
"a@	c #2F98BF",
"b@	c #1F90BA",
"c@	c #0884B3",
"d@	c #188CB8",
"e@	c #E5F4F7",
"f@	c #B0DAE8",
"g@	c #ECF6F9",
"h@	c #D6EEF3",
"i@	c #ACD8E6",
"j@	c #67B3D0",
"k@	c #B4DCE9",
"l@	c #0783B2",
"m@	c #158AB7",
"n@	c #62B0CE",
"o@	c #D3EAF2",
"p@	c #A7D4E4",
"q@	c #8FC7DC",
"r@	c #88C4DA",
"s@	c #90C8DD",
"t@	c #A5D2E3",
"u@	c #C7E3EE",
"v@	c #D6ECF3",
"w@	c #DEEFF5",
"x@	c #E3F2F6",
"y@	c #ECF7FA",
"                                                                                                ",
"                                                                                                ",
"                                                                                                ",
"                                                                                                ",
"                                                                                                ",
"                                                                                                ",
"      . + @ @ @ @ @ @ @ @ @ @ @ @ @ @ @ @ @ @ @ @ @ @ @ @ @ @ @ @ @ @ @ @ @ @ @ @ @ @ + .       ",
"    @ # # $ $ $ $ $ $ $ % % % % % % % % % % % $ $ $ $ $ $ $ $ $ $ $ $ $ $ $ $ $ $ $ $ $ $ &     ",
"  % $ $ % * * * * * * * * * * * * * * * * * * * * * * * * * * * * * * * * * * * * * % % $ $ #   ",
"= # @ * - ; > > > > > > > > > > > > > > > > > > > > > > > > > > > > > > > > > > > , ' ) % $ $ @ ",
"% % + ! ~ { ] ] ] ] ] ] ] ] ] ] ] ] ] ] ] ] ] ] ] ] ] ] ] ] ] ] ] ] ] ] ] ] ] ] ] ] ^ / ( $ $ % ",
"$ $ * _ : < < < < < < < [ [ < [ [ < [ [ < [ [ < < < < < < < < < < < < < < < < < } } } | 1 % $ $ ",
"# % 2 3 4 < < < < < < } } } } } 4 4 5 6 6 7 7 7 8 8 9 9 0 a ] ] b { { : : c d d e ^ f g h * $ $ ",
"# # i j { { { : c c d d e ^ f k k l l m n o p p q r s g g | | t u u v v w w x y y z A B ; C $ $ ",
"% D ) E F u v v w w x G y z z H H I I J J B K L M N O P P Q Q R S T T U ~ ~ V V W W X Y ' Z D $ ",
"# `  ...Q Q R S T +.+.~ ~ V V @.W #.$.$.Y Y 3 3 E E %.&.*.=.-.;.;.>.,.'.'.).!./ ....~.{.].^.` $ ",
"# /.(._.=.-.-.;.;.>.,.'.!.:.<.[.}.|.1.2.3.4.5.6.6.7.8.8.9.0.a.b.c.d.e.f.g.h., , _ _ i.j.k.l./.$ ",
"$ ) m.h n.n.o.o.p.p._.q.r.s.t.u.v.w.x.y.z.A.B.Y C.D.E.F.G.H.I.J.K.L.M.N.O.P.Q.R.S.].].T.U.V.) $ ",
"$ W.X.S.h h h Y.Y.Z.`. +.+++@+#+$+%+&+*+=+-+;+%.T.>+,+'+)+!+~+{+]+^+/+(+T._+:+:+:+U.U.<+[+- W.$ ",
"$ [+:+k.T.}+|+|+|+1+2+3+4+5+6+T ].1 1 1 1 7+8+_._+9+0+0+3+a+b+c+d+e+e+f+&.:+:+:+:+:+:+:+:+:+[+$ ",
"$ :+k.k.k.k.k.k.k.g+h+e+i+1.T k.k.k.k.k.k.k.k.k.k.j+e+e+4+k+k.k.l+e+e+m+L k.k.k.k.k.k.k.k.k.:+$ ",
"$ k.S.S.S.S.S.S.S.n+e+e+h+o+p+S.S.S.S.S.S.S.S.S.S.q+e+e+4+r+S.S.s+e+e+t+X S.S.S.S.S.S.S.S.S.k.$ ",
"$ ].u+u+u+u+u+u+u+v+e+e+w+x+u+u+u+u+u+u+u+u+u+u+u+y+e+e+z+A+B+C+D+e+H.E+c+u+u+u+u+u+u+u+u+u+].$ ",
"$ b+j.j.j.j.j.j.j.F+e+e+G+W j.j.j.j.j.j.j.j.j.j.j.H+e+e+I+J+I+e+K+L+| M+j.j.j.j.j.j.j.j.j.j.b+$ ",
"$ h f.f.f.f.f.f.f.N+e+e+O+P+f.f.f.f.f.f.f.f.f.f.f.Q+e+e+I+R+J+e+S+T+U+f.f.f.f.f.f.f.f.f.f.f.h $ ",
"$ _ V+V+V+V+V+V+V+W+e+e+X+U V+V+V+V+V+V+V+V+V+V+V+Y+e+e+z+Z+`+ @.@e+0++@V+V+V+V+V+V+V+V+V+V+_ $ ",
"$ _...............@@e+e+z+#@......................$@e+e+4+%@..&@*@0+e+I+=@.................._.$ ",
"$ V+;.;.;.;.;.;.;.-@e+e+e+;@;.;.;.;.;.;.;.;.;.;.;.>@e+e+4+,@;.;.;.'@e+e+)@E ;.;.;.;.;.;.;.;.V+$ ",
"$ ..3 3 3 3 3 3 3 !@~@e+e+{@]@3 3 3 3 3 3 3 3 3 3 ^@e+e+4+A 3 3 /@(@e+e+_@:@3 3 3 3 3 3 3 3 ..$ ",
"$ ,.V V V V V V V V <@h+i+e+{@c.[@V V W }@|@1@j V 2@e+e+3@4@5@6@7@e+e+e+8@N V V V V V V V V ,.$ ",
"$ &.S S S S S S S S S 9@h+e+e+e+z+0@a@b@c@e+d@e@S f@e+e+e+e+e+e+e+e+e+K+g@h@S S S S S S S S &.$ ",
"$ $.L L L L L L L L L L i@H.J+e+e+e+e+e+I+3+j@p L k@J+J+J+J+J+J+l@m@n@E+x L L L L L L L L L $.$ ",
"$ ~ A A A A A A A A A A A w o@p@q@r@s@t@u@l l w A B v@w@w@w@w@w@x@d l x A A A A A A A A A A ~ $ ",
"$ Q v v v v v v v v v v v v v v u t t u v v v v v v v v v v v v v v v v v v v v v v v v v v Q $ ",
"$ K s s s s s s s s s s s s s s s s s s s s s s s s s s s s s s s s s s s s s s s s s s s s K $ ",
"$ H y@y@y@y@y@y@y@y@y@y@y@y@y@y@y@y@y@y@y@y@y@y@y@y@y@y@y@y@y@y@y@y@y@y@y@y@y@y@y@y@y@y@y@y@H $ ",
"& x d d d d d d d d d d d d d d d d d d d d d d d d d d d d d d d d d d d d d d d d d d d d x $ ",
"% Q ] ] ] ] ] ] ] ] ] ] ] ] ] ] ] ] ] ] ] ] ] ] ] ] ] ] ] ] ] ] ] ] ] ] ] ] ] ] ] ] ] ] ] ] Q % ",
"= ' 7 7 7 7 7 7 7 7 7 7 7 7 7 7 7 7 7 7 7 7 7 7 7 7 7 7 7 7 7 7 7 7 7 7 7 7 7 7 7 7 7 7 7 7 ' @ ",
"  * X < < < < < < < < < < < < < < < < < < < < < < < < < < < < < < < < < < < < < < < < < < X *   ",
"    # Q.V N N N N N N N N N N N N N N N N N N N N N N N N N N N N N N N N N N N N N N V Q.%     ",
"      . + @ @ @ @ @ @ @ @ @ @ @ @ @ @ @ @ @ @ @ @ @ @ @ @ @ @ @ @ @ @ @ @ @ @ @ @ @ @ + .       ",
"                                                                                                ",
"                                                                                                ",
"                                                                                                ",
"                                                                                                ",
"                                                                                                ",
"                                                                                                "};
